<svg id="Layer_1" data-name="Layer 1" xmlns="http://www.w3.org/2000/svg" viewBox="0 0 256 256"><defs><style>.cls-1{fill:#fad625;}</style></defs><title>icons_HeatGuard</title><path d="M231,11.34A13.68,13.68,0,0,1,244.66,25V231A13.68,13.68,0,0,1,231,244.66H25A13.68,13.68,0,0,1,11.34,231V25A13.68,13.68,0,0,1,25,11.34H231M231,0H25A25,25,0,0,0,0,25V231a25,25,0,0,0,25,25H231a25,25,0,0,0,25-25V25A25,25,0,0,0,231,0Z"/><path d="M89.75,198.14a80,80,0,0,0,76.5,0Z"/><path d="M128,59.21a68.74,68.74,0,0,1,68.66,68.66,70,70,0,0,1-.54,8.62,31,31,0,0,1,10.9,3.87A80,80,0,1,0,48,127.87a81.19,81.19,0,0,0,.9,11.95,30.82,30.82,0,0,1,11-3.46,67.9,67.9,0,0,1-.54-8.49A68.74,68.74,0,0,1,128,59.21Z"/><path class="cls-1" d="M95,167.14a22.5,22.5,0,1,0,22.5-22.5A22.5,22.5,0,0,0,95,167.14Zm22.5-5a5,5,0,1,1-5,5A5,5,0,0,1,117.51,162.14Z"/><path class="cls-1" d="M90.53,151.89a31.5,31.5,0,0,1,5.68-7.25H84.85A31.5,31.5,0,0,1,90.53,151.89Z"/><path class="cls-1" d="M191.39,144.64h-48a2,2,0,0,0-1.57,3.22,30.95,30.95,0,0,1,0,38.56,2,2,0,0,0,1.57,3.22h48a22.5,22.5,0,1,0,0-45Z"/><path class="cls-1" d="M90.53,182.39a31.5,31.5,0,0,1-5.68,7.25H96.21A31.5,31.5,0,0,1,90.53,182.39Z"/><path class="cls-1" d="M165.39,91.36h-49a2,2,0,0,0-1.57,3.22,30.95,30.95,0,0,1,0,38.56,2,2,0,0,0,1.57,3.22h49a22.5,22.5,0,1,0,0-45Z"/><path d="M117.51,146.06a21.08,21.08,0,1,1-21.08,21.08,21.1,21.1,0,0,1,21.08-21.08m0,27.5a6.42,6.42,0,1,0-6.42-6.42,6.43,6.43,0,0,0,6.42,6.42m0-28.92a22.5,22.5,0,1,0,22.5,22.5,22.5,22.5,0,0,0-22.5-22.5Zm0,27.5a5,5,0,1,1,5-5,5,5,0,0,1-5,5Z"/><path d="M92.91,146.06a31.45,31.45,0,0,0-2.38,3.13,31.45,31.45,0,0,0-2.38-3.13h4.76m3.3-1.42H84.85a31.5,31.5,0,0,1,5.68,7.25,31.5,31.5,0,0,1,5.68-7.25Z"/><path d="M191.39,146.06a21.08,21.08,0,1,1,0,42.16h-48a.58.58,0,0,1-.53-.33.55.55,0,0,1,.06-.59,32.31,32.31,0,0,0,0-40.32.55.55,0,0,1-.06-.59.58.58,0,0,1,.53-.33h48m0-1.42h-48a2,2,0,0,0-1.57,3.22,30.95,30.95,0,0,1,0,38.56,2,2,0,0,0,1.57,3.22h48a22.5,22.5,0,1,0,0-45Z"/><path d="M90.53,185.09a31.45,31.45,0,0,0,2.38,3.13H88.15a31.45,31.45,0,0,0,2.38-3.13m0-2.7a31.5,31.5,0,0,1-5.68,7.25H96.21a31.5,31.5,0,0,1-5.68-7.25Z"/><path d="M165.39,92.78a21.08,21.08,0,1,1,0,42.16h-49a.58.58,0,0,1-.53-.33.57.57,0,0,1,.06-.59,32.31,32.31,0,0,0,0-40.32.55.55,0,0,1-.06-.59.58.58,0,0,1,.53-.33h49m0-1.42h-49a2,2,0,0,0-1.57,3.22,30.95,30.95,0,0,1,0,38.56,2,2,0,0,0,1.57,3.22h49a22.5,22.5,0,1,0,0-45Z"/><path class="cls-1" d="M90.53,91.36a22.5,22.5,0,1,0,22.5,22.5A22.5,22.5,0,0,0,90.53,91.36Zm0,27.5a5,5,0,1,1,5-5A5,5,0,0,1,90.53,118.86Z"/><path class="cls-1" d="M63.55,144.64a22.5,22.5,0,1,0,22.5,22.5A22.5,22.5,0,0,0,63.55,144.64Zm0,27.5a5,5,0,1,1,5-5A5,5,0,0,1,63.55,172.14Z"/><path d="M117.51,146.06a21.08,21.08,0,1,1-21.08,21.08,21.1,21.1,0,0,1,21.08-21.08m0,27.5a6.42,6.42,0,1,0-6.42-6.42,6.43,6.43,0,0,0,6.42,6.42m0-28.92a22.5,22.5,0,1,0,22.5,22.5,22.5,22.5,0,0,0-22.5-22.5Zm0,27.5a5,5,0,1,1,5-5,5,5,0,0,1-5,5Z"/><path d="M90.53,92.78a21.08,21.08,0,1,1-21.08,21.08A21.1,21.1,0,0,1,90.53,92.78m0,27.5a6.42,6.42,0,1,0-6.42-6.42,6.43,6.43,0,0,0,6.42,6.42m0-28.92a22.5,22.5,0,1,0,22.5,22.5,22.5,22.5,0,0,0-22.5-22.5Zm0,27.5a5,5,0,1,1,5-5,5,5,0,0,1-5,5Z"/><path d="M63.55,146.06a21.08,21.08,0,1,1-21.08,21.08,21.1,21.1,0,0,1,21.08-21.08m0,27.5a6.42,6.42,0,1,0-6.42-6.42,6.43,6.43,0,0,0,6.42,6.42m0-28.92a22.5,22.5,0,1,0,22.5,22.5,22.5,22.5,0,0,0-22.5-22.5Zm0,27.5a5,5,0,1,1,5-5,5,5,0,0,1-5,5Z"/></svg>