<svg id="Layer_1" data-name="Layer 1" xmlns="http://www.w3.org/2000/svg" viewBox="0 0 256 256"><defs><style>.cls-1{fill:#fad625;}</style></defs><title>icons_HeatGuard</title><path d="M231,11.34A13.68,13.68,0,0,1,244.66,25V231A13.68,13.68,0,0,1,231,244.66H25A13.68,13.68,0,0,1,11.34,231V25A13.68,13.68,0,0,1,25,11.34H231M231,0H25A25,25,0,0,0,0,25V231a25,25,0,0,0,25,25H231a25,25,0,0,0,25-25V25A25,25,0,0,0,231,0Z"/><path d="M88,183.63A68.63,68.63,0,0,1,128,59.21c1.36,0,2.71,0,4.05.13l10.18-10.18a80,80,0,0,0-58,145.64Z"/><path d="M171.88,61l-3.81,11.17A68.63,68.63,0,0,1,128,196.53c-1.28,0-2.54,0-3.8-.11L114,206.62a79.92,79.92,0,0,0,94-78.75A79.91,79.91,0,0,0,171.88,61Z"/><path class="cls-1" d="M175.76,128H140l30.67-89.93A2,2,0,0,0,167.4,36L78.82,124.59A2,2,0,0,0,80.24,128H116L85.29,217.93A2,2,0,0,0,88.6,220l88.58-88.58A2,2,0,0,0,175.76,128Z"/><path d="M168.79,36.83a.67.67,0,0,1,.52.27.54.54,0,0,1,.06.51L138.7,127.54l-.64,1.88h37.7a.55.55,0,0,1,.54.36.54.54,0,0,1-.13.63L87.6,219a.56.56,0,0,1-.39.18.67.67,0,0,1-.52-.27.54.54,0,0,1-.06-.51l30.67-89.93.64-1.88H80.24a.55.55,0,0,1-.54-.36.54.54,0,0,1,.13-.63L168.4,37a.56.56,0,0,1,.39-.18m0-1.42a1.94,1.94,0,0,0-1.39.6L78.82,124.59A2,2,0,0,0,80.24,128H116L85.29,217.93a2,2,0,0,0,1.92,2.66,1.94,1.94,0,0,0,1.39-.6l88.58-88.58a2,2,0,0,0-1.42-3.41H140l30.67-89.93a2,2,0,0,0-1.92-2.66Z"/></svg>