<svg id="Layer_1" data-name="Layer 1" xmlns="http://www.w3.org/2000/svg" viewBox="0 0 256 256"><defs><style>.cls-1{fill:#fad625;}</style></defs><title>icons_HeatGuard</title><path d="M231,11.34A13.68,13.68,0,0,1,244.66,25V231A13.68,13.68,0,0,1,231,244.66H25A13.68,13.68,0,0,1,11.34,231V25A13.68,13.68,0,0,1,25,11.34H231M231,0H25A25,25,0,0,0,0,25V231a25,25,0,0,0,25,25H231a25,25,0,0,0,25-25V25A25,25,0,0,0,231,0Z"/><path d="M149.34,62.62a68.59,68.59,0,0,1,43.78,87,62,62,0,0,1,2.6,17.37c0,1.23,0,2.44-.11,3.65A80,80,0,0,0,151.73,51.45,56.24,56.24,0,0,0,149.34,62.62Z"/><path d="M128,196.71c-.53,0-1.06,0-1.59.08a15.34,15.34,0,0,0-12.63,9.79A80.35,80.35,0,0,0,128,207.87a81.19,81.19,0,0,0,14.21-1.28A15.2,15.2,0,0,0,128,196.71Z"/><path d="M62.59,148.72A68.62,68.62,0,0,1,115.33,60.4,73.44,73.44,0,0,1,124,48,80,80,0,0,0,60.45,170.7,67.92,67.92,0,0,1,62.59,148.72Z"/><path class="cls-1" d="M159.54,107.13C148,91.41,133.12,77.21,145.05,44.64a2,2,0,0,0-3.14-2.24c-25.77,20.88-34,49-13.91,73.68,5.06,6.2,8.44,13.72,8.44,19.88-1.18,30-47.76,29.76-47.29-2.13a22.4,22.4,0,0,1,1.49-8.09,2,2,0,0,0-3.2-2.22C58.27,150.18,65,197.37,96,217.14a5.38,5.38,0,0,0,8.3-4.59,23.69,23.69,0,1,1,47.37-.66,2.44,2.44,0,0,1,0,.27,5.4,5.4,0,0,0,8.35,4.63A59.23,59.23,0,0,0,187.22,167C187.24,146,172.65,125,159.54,107.13Z"/><path d="M143.16,43.36a.65.65,0,0,1,.51.27.53.53,0,0,1,.05.52c-11,30.08.28,44.89,11.2,59.2,1.15,1.51,2.34,3.08,3.48,4.62,13.87,18.88,27.42,39,27.4,59a57.71,57.71,0,0,1-26.53,48.65,4,4,0,0,1-2.18.66,4,4,0,0,1-4-4.09v-.28a25.1,25.1,0,0,0-49.86-4.15,24.73,24.73,0,0,0-.33,4.85,3.76,3.76,0,0,1-1.07,2.77,4.07,4.07,0,0,1-2.9,1.22,4,4,0,0,1-2.16-.63c-14.9-9.49-24.75-26.11-26.35-44.46a56.38,56.38,0,0,1,18-46.93.56.56,0,0,1,.36-.16.68.68,0,0,1,.51.29.54.54,0,0,1,0,.54,23.94,23.94,0,0,0-1.58,8.58c-.11,7.41,2.24,13.78,6.8,18.4a25.71,25.71,0,0,0,18.31,7.31c11.6,0,24.38-7.36,25-23.5V136c0-6.29-3.28-14.05-8.76-20.78-8.28-10.15-11.88-21.06-10.7-32.44,1.43-13.89,9.87-27.46,24.4-39.24a.55.55,0,0,1,.36-.14m0-1.42a2,2,0,0,0-1.25.46c-25.77,20.88-34,49-13.91,73.68,5.06,6.2,8.44,13.72,8.44,19.88-.58,14.7-12.08,22.14-23.6,22.14-12,0-23.93-8-23.69-24.27a22.4,22.4,0,0,1,1.49-8.09A2,2,0,0,0,88.76,123a1.94,1.94,0,0,0-1.32.53C58.27,150.18,65,197.37,96,217.14a5.43,5.43,0,0,0,2.92.86,5.33,5.33,0,0,0,5.38-5.45,23.7,23.7,0,0,1,21.24-24.22,22.43,22.43,0,0,1,2.44-.13,23.69,23.69,0,0,1,23.69,23.69,2.44,2.44,0,0,1,0,.27,5.39,5.39,0,0,0,8.35,4.63A59.23,59.23,0,0,0,187.22,167c0-20.93-14.57-42-27.68-59.82C148,91.41,133.12,77.21,145.05,44.64a2,2,0,0,0-1.89-2.7Z"/></svg>